<svg width="100" height="23" viewBox="0 0 100 23" fill="none" xmlns="http://www.w3.org/2000/svg">
<g clip-path="url(#clip0_721_1608)">
<path d="M0 7.01395H10.784V10.2366H3.70632V13.28H9.36844V16.4555H3.70632V22.6768H0V7.01395Z" fill="#0F3675"/>
<path d="M13.4664 19.171C13.4664 16.531 14.5847 15.8822 16.6655 15.592C17.7177 15.434 19.0247 15.3231 20.3577 15.2547V13.8014C20.3577 13.4664 20.2232 13.3295 19.8859 13.3295H17.8286C17.4912 13.3295 17.3568 13.464 17.3568 13.8014V14.495H13.8699V13.4876C13.8699 11.52 14.7876 10.6023 16.7552 10.6023H20.9852C22.9528 10.6023 23.8706 11.52 23.8706 13.4876V22.6885H20.4709V20.9663C19.7986 21.8605 18.836 22.7782 16.7552 22.7782C14.429 22.7735 13.4664 21.8109 13.4664 19.171ZM20.3577 19.1497V17.2246L17.6729 17.7389C17.1586 17.8498 16.9793 18.0527 16.9793 18.8808C16.9793 19.7749 17.1374 20.0203 17.6871 20.0203C18.7912 20.0203 19.4848 19.6404 20.3577 19.1497Z" fill="#0F3675"/>
<path d="M27.3503 19.7985V13.4876C27.3503 11.52 28.2681 10.6023 30.238 10.6023H34.4846C36.4545 10.6023 37.3723 11.52 37.3723 13.4876V15.1391H33.8429V13.976C33.8429 13.6174 33.732 13.5041 33.3711 13.5041H31.3586C31 13.5041 30.8868 13.615 30.8868 13.976V19.3054C30.8868 19.6404 30.9977 19.7773 31.3586 19.7773H33.3711C33.7297 19.7773 33.8429 19.6428 33.8429 19.3054V18.1423H37.3817V19.7938C37.3817 21.7614 36.464 22.6791 34.494 22.6791H30.2475C28.2681 22.6838 27.3503 21.7661 27.3503 19.7985Z" fill="#0F3675"/>
<path d="M42.4965 19.7985V13.398H40.661V10.6023H42.5484V7.69339H45.9928V10.6023H48.5667V13.398H46.0306V19.3503C46.0306 19.6853 46.1651 19.8221 46.5024 19.8221H48.562V22.6862H45.3818C43.4142 22.6838 42.4965 21.7661 42.4965 19.7985Z" fill="#0F3675"/>
<path d="M52.2448 19.7985V13.4876C52.2448 11.52 53.1625 10.6023 55.1301 10.6023H59.74C61.7076 10.6023 62.6253 11.52 62.6253 13.4876V19.7985C62.6253 21.7661 61.7076 22.6838 59.74 22.6838H55.1183C53.1507 22.6838 52.2448 21.7661 52.2448 19.7985ZM58.6665 19.7749C59.0228 19.7749 59.1384 19.6404 59.1384 19.3031V13.9807C59.1384 13.6221 59.0251 13.5088 58.6665 13.5088H56.1917C55.8355 13.5088 55.7199 13.6197 55.7199 13.9807V19.3054C55.7199 19.6404 55.8331 19.7773 56.1917 19.7773L58.6665 19.7749Z" fill="#0F3675"/>
<path d="M66.4143 10.6023H69.9531V12.3009C70.6019 11.4068 71.43 10.6023 73.0862 10.6023H74.2044V13.7778H72.704C71.7421 13.7391 70.7887 13.9721 69.9531 14.4502V22.6838H66.4143V10.6023Z" fill="#0F3675"/>
<path d="M90.6008 17.3591L93.9084 22.6839H99.9999L93.6466 12.459L90.6008 17.3591Z" fill="#0081CC"/>
<path d="M99.4692 0.856395L100 0H93.9085L89.9073 6.44065L85.9037 0H79.8146L86.8615 11.3431L79.8146 22.6838H81.1994H85.9037L89.9073 16.2432L92.953 11.3431L99.4692 0.856395Z" fill="#0F3675"/>
</g>
<defs>
<clipPath id="clip0_721_1608">
<rect width="100" height="22.7735" fill="white"/>
</clipPath>
</defs>
</svg>
